<svg width="25" height="15" viewBox="0 0 25 15" fill="none" xmlns="http://www.w3.org/2000/svg">
  <path d="M8.57885 9.36552C9.06314 8.97013 9.77626 9.0422 10.1717 9.52648L13.069 13.0752C13.4644 13.5595 13.3923 14.2726 12.908 14.668C12.4238 15.0634 11.7106 14.9913 11.3152 14.507L8.41789 10.9583C8.0225 10.474 8.09456 9.76091 8.57885 9.36552Z" fill="#00A76F"/>
  <path d="M15.8102 9.36552C15.3259 8.97013 14.6128 9.0422 14.2174 9.52648L11.32 13.0752C10.9246 13.5595 10.9967 14.2726 11.481 14.668C11.9653 15.0634 12.6784 14.9913 13.0738 14.507L15.9711 10.9583C16.3665 10.474 16.2945 9.76091 15.8102 9.36552Z" fill="#00A76F"/>
  <ellipse cx="18.8638" cy="5.7075" rx="5.70758" ry="5.7075" fill="#00A76F"/>
  <ellipse cx="18.8639" cy="5.7083" rx="3.7728" ry="3.77276" fill="white"/>
  <ellipse cx="18.864" cy="5.70813" rx="1.83803" ry="1.83801" fill="black"/>
  <ellipse cx="20.0243" cy="4.93049" rx="0.483231" ry="0.483225" fill="white"/>
  <ellipse cx="5.70758" cy="5.7075" rx="5.70758" ry="5.7075" fill="#00A76F"/>
  <ellipse cx="5.7075" cy="5.7083" rx="3.7728" ry="3.77276" fill="white"/>
  <ellipse cx="5.70754" cy="5.70813" rx="1.83803" ry="1.83801" fill="black"/>
  <ellipse cx="6.868" cy="4.93049" rx="0.483231" ry="0.483225" fill="white"/>
</svg>
